<mxfile host="app.diagrams.net" modified="2021-05-09T00:30:33.947Z" agent="5.0 (Windows NT 10.0; Win64; x64) AppleWebKit/537.36 (KHTML, like Gecko) Chrome/90.0.4430.93 Safari/537.36" etag="TpXmIMhEJF0x0OXvBWnL" version="14.6.6" type="github">
  <diagram id="sOLdEAZ8CfKFwMgftr8S" name="Page-1">
    <mxGraphModel dx="868" dy="482" grid="1" gridSize="10" guides="1" tooltips="1" connect="1" arrows="1" fold="1" page="1" pageScale="1" pageWidth="827" pageHeight="1169" math="0" shadow="0">
      <root>
        <mxCell id="0" />
        <mxCell id="1" parent="0" />
        <mxCell id="fO7CqoXZx2wBYxf42ZFm-5" value="" style="rounded=0;whiteSpace=wrap;html=1;" vertex="1" parent="1">
          <mxGeometry x="110" y="400" width="40" height="40" as="geometry" />
        </mxCell>
        <mxCell id="fO7CqoXZx2wBYxf42ZFm-6" value="" style="rounded=0;whiteSpace=wrap;html=1;" vertex="1" parent="1">
          <mxGeometry x="210" y="400" width="40" height="40" as="geometry" />
        </mxCell>
        <mxCell id="fO7CqoXZx2wBYxf42ZFm-7" value="" style="ellipse;whiteSpace=wrap;html=1;" vertex="1" parent="1">
          <mxGeometry x="310" y="400" width="40" height="40" as="geometry" />
        </mxCell>
        <mxCell id="fO7CqoXZx2wBYxf42ZFm-8" value="" style="rounded=0;whiteSpace=wrap;html=1;" vertex="1" parent="1">
          <mxGeometry x="460" y="500" width="40" height="40" as="geometry" />
        </mxCell>
        <mxCell id="fO7CqoXZx2wBYxf42ZFm-9" value="" style="rounded=0;whiteSpace=wrap;html=1;" vertex="1" parent="1">
          <mxGeometry x="344" y="500" width="40" height="40" as="geometry" />
        </mxCell>
        <mxCell id="fO7CqoXZx2wBYxf42ZFm-11" value="" style="rounded=0;whiteSpace=wrap;html=1;" vertex="1" parent="1">
          <mxGeometry x="490" y="400" width="40" height="40" as="geometry" />
        </mxCell>
        <mxCell id="fO7CqoXZx2wBYxf42ZFm-13" value="" style="ellipse;whiteSpace=wrap;html=1;" vertex="1" parent="1">
          <mxGeometry x="490" y="310" width="40" height="40" as="geometry" />
        </mxCell>
        <mxCell id="fO7CqoXZx2wBYxf42ZFm-17" value="" style="group" vertex="1" connectable="0" parent="1">
          <mxGeometry x="330" y="280" width="40" height="40" as="geometry" />
        </mxCell>
        <mxCell id="fO7CqoXZx2wBYxf42ZFm-2" value="" style="ellipse;whiteSpace=wrap;html=1;" vertex="1" parent="fO7CqoXZx2wBYxf42ZFm-17">
          <mxGeometry width="40" height="40" as="geometry" />
        </mxCell>
        <mxCell id="fO7CqoXZx2wBYxf42ZFm-15" value="" style="endArrow=none;html=1;entryX=1;entryY=0;entryDx=0;entryDy=0;exitX=0;exitY=1;exitDx=0;exitDy=0;" edge="1" parent="fO7CqoXZx2wBYxf42ZFm-17" source="fO7CqoXZx2wBYxf42ZFm-2" target="fO7CqoXZx2wBYxf42ZFm-2">
          <mxGeometry width="50" height="50" relative="1" as="geometry">
            <mxPoint x="10" y="30" as="sourcePoint" />
            <mxPoint x="45" y="-5" as="targetPoint" />
          </mxGeometry>
        </mxCell>
        <mxCell id="fO7CqoXZx2wBYxf42ZFm-16" value="" style="endArrow=none;html=1;exitX=0;exitY=0;exitDx=0;exitDy=0;entryX=1;entryY=1;entryDx=0;entryDy=0;" edge="1" parent="fO7CqoXZx2wBYxf42ZFm-17" source="fO7CqoXZx2wBYxf42ZFm-2" target="fO7CqoXZx2wBYxf42ZFm-2">
          <mxGeometry width="50" height="50" relative="1" as="geometry">
            <mxPoint x="52" y="10" as="sourcePoint" />
            <mxPoint x="80" y="40" as="targetPoint" />
          </mxGeometry>
        </mxCell>
        <mxCell id="fO7CqoXZx2wBYxf42ZFm-22" value="" style="group" vertex="1" connectable="0" parent="1">
          <mxGeometry x="90" y="280" width="40" height="40" as="geometry" />
        </mxCell>
        <mxCell id="fO7CqoXZx2wBYxf42ZFm-1" value="" style="rounded=0;whiteSpace=wrap;html=1;" vertex="1" parent="fO7CqoXZx2wBYxf42ZFm-22">
          <mxGeometry width="40" height="40" as="geometry" />
        </mxCell>
        <mxCell id="fO7CqoXZx2wBYxf42ZFm-14" value="" style="rounded=0;whiteSpace=wrap;html=1;" vertex="1" parent="fO7CqoXZx2wBYxf42ZFm-22">
          <mxGeometry x="5" y="5" width="30" height="30" as="geometry" />
        </mxCell>
        <mxCell id="fO7CqoXZx2wBYxf42ZFm-23" value="" style="group" vertex="1" connectable="0" parent="1">
          <mxGeometry x="110" y="340" width="240" as="geometry" />
        </mxCell>
        <mxCell id="fO7CqoXZx2wBYxf42ZFm-19" value="" style="endArrow=none;html=1;exitX=0.5;exitY=1;exitDx=0;exitDy=0;" edge="1" parent="fO7CqoXZx2wBYxf42ZFm-23" source="fO7CqoXZx2wBYxf42ZFm-1">
          <mxGeometry width="50" height="50" relative="1" as="geometry">
            <mxPoint y="50" as="sourcePoint" />
            <mxPoint as="targetPoint" />
          </mxGeometry>
        </mxCell>
        <mxCell id="fO7CqoXZx2wBYxf42ZFm-20" value="" style="endArrow=none;html=1;" edge="1" parent="fO7CqoXZx2wBYxf42ZFm-23">
          <mxGeometry width="50" height="50" relative="1" as="geometry">
            <mxPoint x="240" as="sourcePoint" />
            <mxPoint x="240" y="-20" as="targetPoint" />
          </mxGeometry>
        </mxCell>
        <mxCell id="fO7CqoXZx2wBYxf42ZFm-21" value="" style="endArrow=none;html=1;" edge="1" parent="fO7CqoXZx2wBYxf42ZFm-23">
          <mxGeometry width="50" height="50" relative="1" as="geometry">
            <mxPoint as="sourcePoint" />
            <mxPoint x="240" as="targetPoint" />
          </mxGeometry>
        </mxCell>
        <mxCell id="fO7CqoXZx2wBYxf42ZFm-24" value="" style="endArrow=none;html=1;exitX=0.5;exitY=0;exitDx=0;exitDy=0;" edge="1" parent="1" source="fO7CqoXZx2wBYxf42ZFm-5">
          <mxGeometry width="50" height="50" relative="1" as="geometry">
            <mxPoint x="240" y="420" as="sourcePoint" />
            <mxPoint x="130" y="340" as="targetPoint" />
          </mxGeometry>
        </mxCell>
        <mxCell id="fO7CqoXZx2wBYxf42ZFm-25" value="" style="endArrow=none;html=1;exitX=0.5;exitY=0;exitDx=0;exitDy=0;" edge="1" parent="1">
          <mxGeometry width="50" height="50" relative="1" as="geometry">
            <mxPoint x="229.57999999999998" y="400" as="sourcePoint" />
            <mxPoint x="229.57999999999998" y="340" as="targetPoint" />
          </mxGeometry>
        </mxCell>
        <mxCell id="fO7CqoXZx2wBYxf42ZFm-26" value="" style="endArrow=none;html=1;exitX=0.5;exitY=0;exitDx=0;exitDy=0;" edge="1" parent="1">
          <mxGeometry width="50" height="50" relative="1" as="geometry">
            <mxPoint x="329.16999999999996" y="400" as="sourcePoint" />
            <mxPoint x="329.16999999999996" y="340" as="targetPoint" />
          </mxGeometry>
        </mxCell>
        <mxCell id="fO7CqoXZx2wBYxf42ZFm-36" value="" style="group" vertex="1" connectable="0" parent="1">
          <mxGeometry x="370" y="440" width="140" height="30" as="geometry" />
        </mxCell>
        <mxCell id="fO7CqoXZx2wBYxf42ZFm-27" value="" style="endArrow=none;html=1;entryX=0.5;entryY=1;entryDx=0;entryDy=0;" edge="1" parent="fO7CqoXZx2wBYxf42ZFm-36" target="fO7CqoXZx2wBYxf42ZFm-7">
          <mxGeometry width="50" height="50" relative="1" as="geometry">
            <mxPoint x="-40" y="20" as="sourcePoint" />
            <mxPoint x="-40" y="-70" as="targetPoint" />
          </mxGeometry>
        </mxCell>
        <mxCell id="fO7CqoXZx2wBYxf42ZFm-32" value="" style="endArrow=none;html=1;" edge="1" parent="fO7CqoXZx2wBYxf42ZFm-36">
          <mxGeometry width="50" height="50" relative="1" as="geometry">
            <mxPoint x="-40" y="20" as="sourcePoint" />
            <mxPoint x="140" y="20" as="targetPoint" />
          </mxGeometry>
        </mxCell>
        <mxCell id="fO7CqoXZx2wBYxf42ZFm-33" value="" style="endArrow=none;html=1;entryX=0.5;entryY=1;entryDx=0;entryDy=0;" edge="1" parent="fO7CqoXZx2wBYxf42ZFm-36">
          <mxGeometry width="50" height="50" relative="1" as="geometry">
            <mxPoint x="140" y="20" as="sourcePoint" />
            <mxPoint x="139.71000000000004" as="targetPoint" />
          </mxGeometry>
        </mxCell>
        <mxCell id="fO7CqoXZx2wBYxf42ZFm-34" value="" style="endArrow=none;html=1;" edge="1" parent="fO7CqoXZx2wBYxf42ZFm-36">
          <mxGeometry width="50" height="50" relative="1" as="geometry">
            <mxPoint x="40" y="30" as="sourcePoint" />
            <mxPoint x="60" y="10" as="targetPoint" />
          </mxGeometry>
        </mxCell>
        <mxCell id="fO7CqoXZx2wBYxf42ZFm-38" value="" style="endArrow=none;html=1;exitX=0.5;exitY=0;exitDx=0;exitDy=0;" edge="1" parent="fO7CqoXZx2wBYxf42ZFm-36">
          <mxGeometry width="50" height="50" relative="1" as="geometry">
            <mxPoint x="110" y="60" as="sourcePoint" />
            <mxPoint x="110" y="20" as="targetPoint" />
          </mxGeometry>
        </mxCell>
        <mxCell id="fO7CqoXZx2wBYxf42ZFm-37" value="" style="endArrow=none;html=1;exitX=0.5;exitY=0;exitDx=0;exitDy=0;" edge="1" parent="1" source="fO7CqoXZx2wBYxf42ZFm-9">
          <mxGeometry width="50" height="50" relative="1" as="geometry">
            <mxPoint x="350" y="520" as="sourcePoint" />
            <mxPoint x="364" y="460" as="targetPoint" />
          </mxGeometry>
        </mxCell>
        <mxCell id="fO7CqoXZx2wBYxf42ZFm-39" value="" style="endArrow=none;html=1;entryX=0;entryY=0.5;entryDx=0;entryDy=0;" edge="1" parent="1" target="fO7CqoXZx2wBYxf42ZFm-8">
          <mxGeometry width="50" height="50" relative="1" as="geometry">
            <mxPoint x="384" y="520" as="sourcePoint" />
            <mxPoint x="434" y="470" as="targetPoint" />
          </mxGeometry>
        </mxCell>
        <mxCell id="fO7CqoXZx2wBYxf42ZFm-41" value="" style="endArrow=none;dashed=1;html=1;dashPattern=1 3;strokeWidth=2;entryX=0.5;entryY=1;entryDx=0;entryDy=0;exitX=0.5;exitY=0;exitDx=0;exitDy=0;" edge="1" parent="1" source="fO7CqoXZx2wBYxf42ZFm-9" target="fO7CqoXZx2wBYxf42ZFm-7">
          <mxGeometry width="50" height="50" relative="1" as="geometry">
            <mxPoint x="320" y="530" as="sourcePoint" />
            <mxPoint x="370" y="480" as="targetPoint" />
          </mxGeometry>
        </mxCell>
        <mxCell id="fO7CqoXZx2wBYxf42ZFm-42" value="" style="endArrow=none;dashed=1;html=1;dashPattern=1 3;strokeWidth=2;exitX=0.5;exitY=0;exitDx=0;exitDy=0;" edge="1" parent="1" source="fO7CqoXZx2wBYxf42ZFm-8">
          <mxGeometry width="50" height="50" relative="1" as="geometry">
            <mxPoint x="374" y="509.9999999999999" as="sourcePoint" />
            <mxPoint x="330" y="440" as="targetPoint" />
          </mxGeometry>
        </mxCell>
        <mxCell id="fO7CqoXZx2wBYxf42ZFm-43" value="" style="endArrow=none;html=1;exitX=0.5;exitY=0;exitDx=0;exitDy=0;entryX=0.5;entryY=1;entryDx=0;entryDy=0;" edge="1" parent="1" source="fO7CqoXZx2wBYxf42ZFm-11" target="fO7CqoXZx2wBYxf42ZFm-13">
          <mxGeometry width="50" height="50" relative="1" as="geometry">
            <mxPoint x="540" y="460" as="sourcePoint" />
            <mxPoint x="590" y="410" as="targetPoint" />
          </mxGeometry>
        </mxCell>
        <mxCell id="fO7CqoXZx2wBYxf42ZFm-48" value="" style="verticalLabelPosition=bottom;verticalAlign=top;html=1;shape=mxgraph.basic.pie;startAngle=0.5035361945001575;endAngle=0.0015914963824541276;rotation=0;fillColor=#050505;" vertex="1" parent="1">
          <mxGeometry x="310" y="400" width="40" height="40" as="geometry" />
        </mxCell>
        <mxCell id="fO7CqoXZx2wBYxf42ZFm-50" value="" style="endArrow=none;html=1;entryX=0;entryY=0.5;entryDx=0;entryDy=0;exitX=0.94;exitY=0.282;exitDx=0;exitDy=0;exitPerimeter=0;" edge="1" parent="1" source="fO7CqoXZx2wBYxf42ZFm-7" target="fO7CqoXZx2wBYxf42ZFm-13">
          <mxGeometry width="50" height="50" relative="1" as="geometry">
            <mxPoint x="350" y="410" as="sourcePoint" />
            <mxPoint x="440" y="380" as="targetPoint" />
          </mxGeometry>
        </mxCell>
        <mxCell id="fO7CqoXZx2wBYxf42ZFm-51" value="" style="endArrow=none;html=1;exitX=1;exitY=0.5;exitDx=0;exitDy=0;entryX=0.065;entryY=0.719;entryDx=0;entryDy=0;entryPerimeter=0;" edge="1" parent="1" source="fO7CqoXZx2wBYxf42ZFm-7" target="fO7CqoXZx2wBYxf42ZFm-13">
          <mxGeometry width="50" height="50" relative="1" as="geometry">
            <mxPoint x="380" y="450" as="sourcePoint" />
            <mxPoint x="430" y="400" as="targetPoint" />
          </mxGeometry>
        </mxCell>
        <mxCell id="fO7CqoXZx2wBYxf42ZFm-53" value="" style="endArrow=none;dashed=1;html=1;" edge="1" parent="1">
          <mxGeometry width="50" height="50" relative="1" as="geometry">
            <mxPoint x="400" y="570" as="sourcePoint" />
            <mxPoint x="400" y="570" as="targetPoint" />
            <Array as="points">
              <mxPoint x="360" y="570" />
              <mxPoint x="230" y="550" />
              <mxPoint x="130" y="510" />
              <mxPoint x="90" y="470" />
              <mxPoint x="70" y="430" />
              <mxPoint x="60" y="400" />
              <mxPoint x="50" y="360" />
              <mxPoint x="50" y="320" />
              <mxPoint x="70" y="270" />
              <mxPoint x="110" y="250" />
              <mxPoint x="160" y="260" />
              <mxPoint x="220" y="280" />
              <mxPoint x="330" y="340" />
              <mxPoint x="430" y="420" />
              <mxPoint x="540" y="490" />
              <mxPoint x="570" y="535" />
              <mxPoint x="560" y="570" />
              <mxPoint x="540" y="585" />
              <mxPoint x="460" y="575" />
            </Array>
          </mxGeometry>
        </mxCell>
        <mxCell id="fO7CqoXZx2wBYxf42ZFm-55" value="J.M" style="text;html=1;strokeColor=none;fillColor=none;align=center;verticalAlign=middle;whiteSpace=wrap;rounded=0;" vertex="1" parent="1">
          <mxGeometry x="90" y="260" width="40" height="20" as="geometry" />
        </mxCell>
        <mxCell id="fO7CqoXZx2wBYxf42ZFm-56" value="Falecida" style="text;html=1;align=center;verticalAlign=middle;resizable=0;points=[];autosize=1;strokeColor=none;" vertex="1" parent="1">
          <mxGeometry x="320" y="260" width="60" height="20" as="geometry" />
        </mxCell>
        <mxCell id="fO7CqoXZx2wBYxf42ZFm-57" value="Ex-Cunhada" style="text;html=1;align=center;verticalAlign=middle;resizable=0;points=[];autosize=1;strokeColor=none;" vertex="1" parent="1">
          <mxGeometry x="475" y="290" width="80" height="20" as="geometry" />
        </mxCell>
        <mxCell id="fO7CqoXZx2wBYxf42ZFm-58" value="Ex-Marido" style="text;html=1;align=center;verticalAlign=middle;resizable=0;points=[];autosize=1;strokeColor=none;" vertex="1" parent="1">
          <mxGeometry x="530" y="410" width="70" height="20" as="geometry" />
        </mxCell>
        <mxCell id="fO7CqoXZx2wBYxf42ZFm-59" value="Neto 1" style="text;html=1;align=center;verticalAlign=middle;resizable=0;points=[];autosize=1;strokeColor=none;" vertex="1" parent="1">
          <mxGeometry x="339" y="540" width="50" height="20" as="geometry" />
        </mxCell>
        <mxCell id="fO7CqoXZx2wBYxf42ZFm-60" value="Neto 2" style="text;html=1;align=center;verticalAlign=middle;resizable=0;points=[];autosize=1;strokeColor=none;" vertex="1" parent="1">
          <mxGeometry x="455" y="540" width="50" height="20" as="geometry" />
        </mxCell>
        <mxCell id="fO7CqoXZx2wBYxf42ZFm-62" value="F.A" style="text;html=1;align=center;verticalAlign=middle;resizable=0;points=[];autosize=1;strokeColor=none;" vertex="1" parent="1">
          <mxGeometry x="314" y="380" width="30" height="20" as="geometry" />
        </mxCell>
        <mxCell id="fO7CqoXZx2wBYxf42ZFm-64" value="Filho 1" style="text;html=1;align=center;verticalAlign=middle;resizable=0;points=[];autosize=1;strokeColor=none;" vertex="1" parent="1">
          <mxGeometry x="105" y="440" width="50" height="20" as="geometry" />
        </mxCell>
        <mxCell id="fO7CqoXZx2wBYxf42ZFm-66" value="Filho 2" style="text;html=1;align=center;verticalAlign=middle;resizable=0;points=[];autosize=1;strokeColor=none;" vertex="1" parent="1">
          <mxGeometry x="205" y="440" width="50" height="20" as="geometry" />
        </mxCell>
      </root>
    </mxGraphModel>
  </diagram>
</mxfile>
